<svg width="483" height="150" viewBox="0 0 483 150" fill="none" xmlns="http://www.w3.org/2000/svg">
<path d="M100.643 149.998C98.435 149.998 96.6433 148.283 96.6433 146.167C96.6433 144.05 98.435 142.335 100.643 142.335C109.735 142.335 114.328 136.6 116.493 132.319L108.34 132.244C101.763 132.244 96.3767 127.087 96.3767 120.75C96.3767 114.41 101.762 109.255 108.38 109.255H127.588C129.795 109.255 131.588 107.535 131.588 105.422C131.588 103.309 129.795 101.591 127.588 101.591H108.38C101.762 101.591 96.3767 96.4339 96.3767 90.0973C96.3767 83.7607 101.762 78.6041 108.38 78.6041H137.993C140.198 78.6041 141.993 76.8858 141.993 74.7725C141.993 72.6592 140.198 70.9409 137.993 70.9409H108.38C101.762 70.9409 96.3767 65.7843 96.3767 59.446C96.3767 53.1077 101.762 47.9511 108.38 47.9511H127.588C129.795 47.9511 131.588 46.2328 131.588 44.1195C131.588 42.0062 129.795 40.2879 127.588 40.2879H108.38C101.762 40.2879 96.3767 35.1313 96.3767 28.793C96.3767 22.4548 101.762 17.2981 108.38 17.2981L114.578 17.3715C112.845 11.7632 107.46 7.66492 101.102 7.66492C93.3483 7.66492 87.0033 13.7048 87.0033 21.1298V138.507C87.0033 144.845 81.585 150 74.965 150C68.3467 150 62.96 144.843 62.96 138.505V21.1281C62.96 13.7032 56.65 7.66325 48.8967 7.66325C42.54 7.66325 37.155 11.7615 35.42 17.3698L41.5667 17.2965C48.2367 17.2965 53.6217 22.4531 53.6217 28.7913C53.6217 35.1296 48.2367 40.2862 41.6167 40.2862H22.41C20.2033 40.2862 18.4083 42.0045 18.4083 44.1178C18.4083 46.2312 20.2033 47.9495 22.41 47.9495H41.6183C48.2383 47.9495 53.6233 53.1061 53.6233 59.4443C53.6233 65.7826 48.2383 70.9392 41.6183 70.9392H12.0083C9.80167 70.9392 8.00667 72.6592 8.00667 74.7708C8.00667 76.8841 9.80167 78.6025 12.0083 78.6025H41.62C48.24 78.6025 53.625 83.7591 53.625 90.0957C53.625 96.4323 48.24 101.589 41.62 101.589H22.41C20.2033 101.589 18.4083 103.307 18.4083 105.42C18.4083 107.534 20.2033 109.254 22.41 109.254H41.6183C48.2383 109.254 53.6233 114.41 53.6233 120.749C53.6233 127.087 48.2383 132.242 41.6183 132.242L33.54 132.317C35.7333 136.597 40.35 142.333 49.355 142.333C51.565 142.333 53.3567 144.048 53.3567 146.165C53.3567 148.282 51.565 149.998 49.3567 149.998C32.8583 149.998 25.5317 136.477 23.965 129.329C23.7167 128.205 24.0133 127.034 24.7617 126.139C25.5133 125.247 26.645 124.719 27.8417 124.71L41.5833 124.584C43.8267 124.584 45.6217 122.865 45.6217 120.752C45.6217 118.637 43.8267 116.919 41.62 116.919H22.41C15.7917 116.919 10.405 111.762 10.405 105.424C10.405 99.0856 15.79 93.9306 22.41 93.9306H41.6183C43.825 93.9306 45.62 92.2123 45.62 90.099C45.62 87.9857 43.825 86.2674 41.6183 86.2674H12.0083C5.385 86.2657 0 81.1091 0 74.7708C0 68.4326 5.385 63.276 12.0083 63.276H41.62C43.8267 63.276 45.6217 61.556 45.6217 59.4443C45.6217 57.3327 43.8267 55.6127 41.62 55.6127H22.41C15.7917 55.6127 10.405 50.4561 10.405 44.1178C10.405 37.7796 15.79 32.623 22.41 32.623H41.6183C43.825 32.623 45.62 30.9047 45.62 28.7913C45.62 26.678 43.825 24.9597 41.6183 24.9597L30.8817 25.0881C29.7983 25.0964 28.7817 24.7031 28.0233 23.9814C27.2617 23.2614 26.8333 22.2798 26.8333 21.2548C26.8333 9.53489 36.73 0 48.8967 0C61.0633 0 70.9633 9.47823 70.9633 21.1281V138.503C70.9633 140.617 72.7583 142.335 74.965 142.335C77.1717 142.335 79 140.617 79 138.503V21.1248C79 9.47823 88.935 0 101.102 0C113.27 0 123.165 9.53489 123.165 21.2548C123.165 22.2798 122.737 23.2614 121.975 23.9814C121.215 24.7014 120.21 25.1014 119.117 25.0881L108.328 24.9597C106.173 24.9597 104.378 26.6797 104.378 28.7913C104.378 30.903 106.173 32.623 108.378 32.623H127.587C134.207 32.623 139.59 37.7796 139.59 44.1178C139.59 50.4561 134.207 55.6127 127.587 55.6127H108.38C106.175 55.6127 104.38 57.331 104.38 59.4443C104.38 61.5577 106.175 63.276 108.38 63.276H137.993C144.612 63.276 150 68.4326 150 74.7708C150 81.1091 144.612 86.2657 137.993 86.2657H108.38C106.175 86.2657 104.38 87.984 104.38 90.0973C104.38 92.2106 106.175 93.929 108.38 93.929H127.588C134.208 93.929 139.592 99.0856 139.592 105.422C139.592 111.762 134.208 116.917 127.588 116.917H108.38C106.175 116.917 104.38 118.635 104.38 120.75C104.38 122.864 106.175 124.582 108.38 124.582L122.16 124.709C123.357 124.719 124.488 125.245 125.242 126.137C125.988 127.032 126.282 128.204 126.037 129.327C124.465 136.477 117.142 149.998 100.643 149.998Z" fill="#CFCFCF"/>
<path d="M183.032 80.144V70.544C183.032 65.04 184.632 60.56 187.832 57.104C191.096 53.648 195.864 51.92 202.136 51.92C206.104 51.92 209.432 52.624 212.12 54.032C214.872 55.44 216.248 56.944 216.248 58.544C216.248 59.44 215.896 60.336 215.192 61.232C214.552 62.064 213.784 62.48 212.888 62.48C212.632 62.48 211.512 61.936 209.528 60.848C207.608 59.696 205.336 59.12 202.712 59.12C198.872 59.12 195.96 60.112 193.976 62.096C191.992 64.08 191 66.896 191 70.544V80.144C191 87.76 194.936 91.568 202.808 91.568C205.496 91.568 207.832 90.992 209.816 89.84C211.8 88.688 212.952 88.112 213.272 88.112C214.296 88.112 215.128 88.528 215.768 89.36C216.472 90.192 216.824 91.056 216.824 91.952C216.824 93.552 215.416 95.088 212.6 96.56C209.784 98.032 206.328 98.768 202.232 98.768C195.896 98.768 191.096 97.072 187.832 93.68C184.632 90.224 183.032 85.712 183.032 80.144ZM229.783 55.76C229.783 54.864 230.327 54.064 231.415 53.36C232.567 52.656 233.719 52.304 234.871 52.304C236.215 52.304 237.079 52.816 237.463 53.84L249.655 86.48L261.655 54.224C262.167 52.944 263.031 52.304 264.247 52.304C265.271 52.304 266.391 52.656 267.607 53.36C268.823 54.064 269.431 54.864 269.431 55.76C269.431 56.272 269.303 56.784 269.047 57.296L253.303 97.136C252.791 98.288 251.575 98.864 249.655 98.864C247.671 98.864 246.423 98.288 245.911 97.136L230.167 57.296C229.911 56.528 229.783 56.016 229.783 55.76ZM284.073 80.144V70.064C284.073 65.136 285.929 60.88 289.641 57.296C293.417 53.712 297.929 51.92 303.177 51.92C308.169 51.92 312.489 53.616 316.137 57.008C319.785 60.336 321.609 64.528 321.609 69.584C321.609 71.44 321.385 72.944 320.937 74.096C320.489 75.184 319.785 75.984 318.825 76.496C317.929 76.944 317.065 77.232 316.233 77.36C315.465 77.488 314.409 77.552 313.065 77.552H292.041V80.432C292.041 83.952 293.289 86.768 295.785 88.88C298.345 90.992 301.641 92.048 305.673 92.048C307.785 92.048 309.609 91.728 311.145 91.088C312.745 90.448 314.025 89.84 314.985 89.264C315.945 88.624 316.713 88.304 317.289 88.304C318.185 88.304 318.953 88.72 319.593 89.552C320.233 90.32 320.554 91.12 320.554 91.952C320.554 93.424 319.082 94.928 316.137 96.464C313.257 98 309.673 98.768 305.385 98.768C299.113 98.768 293.993 97.072 290.025 93.68C286.057 90.224 284.073 85.712 284.073 80.144ZM292.041 72.176H309.801C311.465 72.176 312.585 71.984 313.161 71.6C313.737 71.152 314.025 70.32 314.025 69.104C314.025 66.224 312.969 63.696 310.857 61.52C308.745 59.344 306.153 58.256 303.081 58.256C300.073 58.256 297.481 59.28 295.305 61.328C293.129 63.312 292.041 65.776 292.041 68.72V72.176ZM337.915 93.584C337.915 92.176 338.395 90.992 339.355 90.032C340.315 89.008 341.499 88.496 342.907 88.496C344.251 88.496 345.403 89.008 346.363 90.032C347.323 90.992 347.803 92.176 347.803 93.584C347.803 94.928 347.323 96.112 346.363 97.136C345.403 98.096 344.251 98.576 342.907 98.576C341.499 98.576 340.315 98.096 339.355 97.136C338.395 96.112 337.915 94.928 337.915 93.584ZM366.597 95.216V42.992C366.597 38 368.261 33.776 371.589 30.32C374.981 26.8 378.981 25.04 383.589 25.04H386.949C387.973 25.04 388.773 25.392 389.349 26.096C389.925 26.8 390.213 27.632 390.213 28.592C390.213 29.552 389.925 30.384 389.349 31.088C388.773 31.728 387.973 32.048 386.949 32.048H384.933C381.989 32.048 379.525 33.04 377.541 35.024C375.621 37.008 374.629 39.44 374.565 42.32V52.496H387.717C388.485 52.496 389.093 52.816 389.541 53.456C389.989 54.096 390.213 54.832 390.213 55.664C390.213 56.496 389.989 57.232 389.541 57.872C389.093 58.448 388.485 58.736 387.717 58.736H374.565V95.216C374.565 95.984 374.149 96.656 373.317 97.232C372.549 97.744 371.589 98 370.437 98C369.349 98 368.421 97.744 367.653 97.232C366.949 96.72 366.597 96.048 366.597 95.216ZM401.871 55.76C401.871 54.736 402.447 53.84 403.599 53.072C404.751 52.304 405.903 51.92 407.055 51.92C408.399 51.92 409.263 52.464 409.647 53.552L422.319 86.96L433.743 53.552C434.191 52.464 435.023 51.92 436.239 51.92C437.327 51.92 438.447 52.304 439.599 53.072C440.815 53.84 441.423 54.768 441.423 55.856C441.423 56.176 441.327 56.496 441.135 56.816L426.543 95.888L424.719 100.688C424.399 101.584 423.759 103.12 422.799 105.296C421.839 107.472 421.039 109.04 420.399 110C419.759 110.96 418.863 112.208 417.711 113.744C416.559 115.344 415.439 116.496 414.351 117.2C413.263 117.904 411.951 118.544 410.415 119.12C408.943 119.696 407.375 119.984 405.711 119.984C403.215 119.984 401.967 118.8 401.967 116.432C401.967 114.128 402.735 112.976 404.271 112.976C407.151 112.976 409.935 111.344 412.623 108.08C415.375 104.88 417.231 100.752 418.191 95.696L402.255 56.816C401.999 56.432 401.871 56.08 401.871 55.76ZM458.273 38.672C457.313 37.712 456.833 36.624 456.833 35.408C456.833 34.192 457.313 33.136 458.273 32.24C459.233 31.344 460.417 30.896 461.825 30.896C463.169 30.896 464.321 31.344 465.281 32.24C466.241 33.136 466.721 34.192 466.721 35.408C466.721 36.624 466.241 37.712 465.281 38.672C464.321 39.568 463.169 40.016 461.825 40.016C460.481 40.016 459.297 39.568 458.273 38.672ZM457.889 95.12V55.28C457.889 54.448 458.273 53.776 459.041 53.264C459.809 52.752 460.737 52.496 461.825 52.496C462.977 52.496 463.937 52.752 464.705 53.264C465.473 53.776 465.857 54.448 465.857 55.28V95.12C465.857 95.824 465.441 96.496 464.609 97.136C463.841 97.712 462.913 98 461.825 98C460.737 98 459.809 97.712 459.041 97.136C458.273 96.56 457.889 95.888 457.889 95.12Z" fill="#CFCFCF"/>
</svg>
